<svg width="17" height="18" viewBox="0 0 17 18" fill="none" xmlns="http://www.w3.org/2000/svg">
<path d="M16.991 9.1684C16.991 8.43093 16.9332 7.8928 16.808 7.33473H8.66931V10.6632H13.4465C13.3502 11.4904 12.8301 12.7361 11.6743 13.5732L11.6581 13.6846L14.2315 15.7472L14.4097 15.7657C16.0471 14.201 16.991 11.899 16.991 9.1684Z" fill="#4285F4"/>
<path d="M8.66931 17.9382C11.0097 17.9382 12.9746 17.1409 14.4097 15.7657L11.6743 13.5732C10.9423 14.1014 9.9599 14.4701 8.66931 14.4701C6.37701 14.4701 4.43144 12.9055 3.7379 10.743L3.63622 10.7519L0.960467 12.8945L0.925476 12.9952C2.35094 15.9251 5.27894 17.9382 8.66931 17.9382Z" fill="#34A853"/>
<path d="M3.73789 10.743C3.55487 10.1849 3.44899 9.58693 3.44899 8.9691C3.44899 8.35117 3.55487 7.75327 3.72824 7.1952L3.7234 7.07633L1.01411 4.8993L0.925465 4.94293C0.337964 6.15873 0.000854492 7.52407 0.000854492 8.9691C0.000854492 10.4141 0.337964 11.7794 0.925465 12.9952L3.73789 10.743Z" fill="#FBBC05"/>
<path d="M8.66931 3.46803C10.297 3.46803 11.395 4.1955 12.0211 4.80346L14.4675 2.33196C12.965 0.886948 11.0098 0 8.66931 0C5.27897 0 2.35094 2.01304 0.925476 4.94293L3.72825 7.1952C4.43144 5.03266 6.37701 3.46803 8.66931 3.46803Z" fill="#EB4335"/>
</svg>
